<svg xmlns="http://www.w3.org/2000/svg" xmlns:xlink="http://www.w3.org/1999/xlink" width="600" height="400" viewBox="0 0 2400 1600">
<defs>
  <clipPath id="clip580">
    <rect x="0" y="0" width="2400" height="1600"></rect>
  </clipPath>
</defs>
<path clip-path="url(#clip580)" d="
M0 1600 L2400 1600 L2400 0 L0 0  Z
  " fill="#ffffff" fill-rule="evenodd" fill-opacity="1"></path>
<defs>
  <clipPath id="clip581">
    <rect x="480" y="0" width="1681" height="1600"></rect>
  </clipPath>
</defs>
<path clip-path="url(#clip580)" d="
M214.353 686.448 L2352.76 686.448 L2352.76 47.2441 L214.353 47.2441  Z
  " fill="#ffffff" fill-rule="evenodd" fill-opacity="1"></path>
<defs>
  <clipPath id="clip582">
    <rect x="214" y="47" width="2139" height="640"></rect>
  </clipPath>
</defs>
<polyline clip-path="url(#clip582)" style="stroke:#000000; stroke-linecap:round; stroke-linejoin:round; stroke-width:2; stroke-opacity:0.1; fill:none" points="
  240.681,686.448 240.681,47.2441 
  "></polyline>
<polyline clip-path="url(#clip582)" style="stroke:#000000; stroke-linecap:round; stroke-linejoin:round; stroke-width:2; stroke-opacity:0.1; fill:none" points="
  753.569,686.448 753.569,47.2441 
  "></polyline>
<polyline clip-path="url(#clip582)" style="stroke:#000000; stroke-linecap:round; stroke-linejoin:round; stroke-width:2; stroke-opacity:0.1; fill:none" points="
  1266.46,686.448 1266.46,47.2441 
  "></polyline>
<polyline clip-path="url(#clip582)" style="stroke:#000000; stroke-linecap:round; stroke-linejoin:round; stroke-width:2; stroke-opacity:0.1; fill:none" points="
  1779.35,686.448 1779.35,47.2441 
  "></polyline>
<polyline clip-path="url(#clip582)" style="stroke:#000000; stroke-linecap:round; stroke-linejoin:round; stroke-width:2; stroke-opacity:0.1; fill:none" points="
  2292.24,686.448 2292.24,47.2441 
  "></polyline>
<polyline clip-path="url(#clip580)" style="stroke:#000000; stroke-linecap:round; stroke-linejoin:round; stroke-width:4; stroke-opacity:1; fill:none" points="
  214.353,686.448 2352.76,686.448 
  "></polyline>
<polyline clip-path="url(#clip580)" style="stroke:#000000; stroke-linecap:round; stroke-linejoin:round; stroke-width:4; stroke-opacity:1; fill:none" points="
  240.681,686.448 240.681,667.55 
  "></polyline>
<polyline clip-path="url(#clip580)" style="stroke:#000000; stroke-linecap:round; stroke-linejoin:round; stroke-width:4; stroke-opacity:1; fill:none" points="
  753.569,686.448 753.569,667.55 
  "></polyline>
<polyline clip-path="url(#clip580)" style="stroke:#000000; stroke-linecap:round; stroke-linejoin:round; stroke-width:4; stroke-opacity:1; fill:none" points="
  1266.46,686.448 1266.46,667.55 
  "></polyline>
<polyline clip-path="url(#clip580)" style="stroke:#000000; stroke-linecap:round; stroke-linejoin:round; stroke-width:4; stroke-opacity:1; fill:none" points="
  1779.35,686.448 1779.35,667.55 
  "></polyline>
<polyline clip-path="url(#clip580)" style="stroke:#000000; stroke-linecap:round; stroke-linejoin:round; stroke-width:4; stroke-opacity:1; fill:none" points="
  2292.24,686.448 2292.24,667.55 
  "></polyline>
<path clip-path="url(#clip580)" d="M218.065 717.367 Q214.454 717.367 212.625 720.931 Q210.82 724.473 210.82 731.603 Q210.82 738.709 212.625 742.274 Q214.454 745.815 218.065 745.815 Q221.699 745.815 223.505 742.274 Q225.334 738.709 225.334 731.603 Q225.334 724.473 223.505 720.931 Q221.699 717.367 218.065 717.367 M218.065 713.663 Q223.875 713.663 226.931 718.269 Q230.01 722.853 230.01 731.603 Q230.01 740.329 226.931 744.936 Q223.875 749.519 218.065 749.519 Q212.255 749.519 209.176 744.936 Q206.121 740.329 206.121 731.603 Q206.121 722.853 209.176 718.269 Q212.255 713.663 218.065 713.663 Z" fill="#000000" fill-rule="evenodd" fill-opacity="1"></path><path clip-path="url(#clip580)" d="M238.227 742.968 L243.111 742.968 L243.111 748.848 L238.227 748.848 L238.227 742.968 Z" fill="#000000" fill-rule="evenodd" fill-opacity="1"></path><path clip-path="url(#clip580)" d="M263.296 717.367 Q259.685 717.367 257.857 720.931 Q256.051 724.473 256.051 731.603 Q256.051 738.709 257.857 742.274 Q259.685 745.815 263.296 745.815 Q266.931 745.815 268.736 742.274 Q270.565 738.709 270.565 731.603 Q270.565 724.473 268.736 720.931 Q266.931 717.367 263.296 717.367 M263.296 713.663 Q269.107 713.663 272.162 718.269 Q275.241 722.853 275.241 731.603 Q275.241 740.329 272.162 744.936 Q269.107 749.519 263.296 749.519 Q257.486 749.519 254.408 744.936 Q251.352 740.329 251.352 731.603 Q251.352 722.853 254.408 718.269 Q257.486 713.663 263.296 713.663 Z" fill="#000000" fill-rule="evenodd" fill-opacity="1"></path><path clip-path="url(#clip580)" d="M731.451 717.367 Q727.84 717.367 726.012 720.931 Q724.206 724.473 724.206 731.603 Q724.206 738.709 726.012 742.274 Q727.84 745.815 731.451 745.815 Q735.086 745.815 736.891 742.274 Q738.72 738.709 738.72 731.603 Q738.72 724.473 736.891 720.931 Q735.086 717.367 731.451 717.367 M731.451 713.663 Q737.262 713.663 740.317 718.269 Q743.396 722.853 743.396 731.603 Q743.396 740.329 740.317 744.936 Q737.262 749.519 731.451 749.519 Q725.641 749.519 722.563 744.936 Q719.507 740.329 719.507 731.603 Q719.507 722.853 722.563 718.269 Q725.641 713.663 731.451 713.663 Z" fill="#000000" fill-rule="evenodd" fill-opacity="1"></path><path clip-path="url(#clip580)" d="M751.613 742.968 L756.498 742.968 L756.498 748.848 L751.613 748.848 L751.613 742.968 Z" fill="#000000" fill-rule="evenodd" fill-opacity="1"></path><path clip-path="url(#clip580)" d="M766.729 714.288 L785.085 714.288 L785.085 718.223 L771.011 718.223 L771.011 726.695 Q772.03 726.348 773.048 726.186 Q774.067 726.001 775.085 726.001 Q780.872 726.001 784.252 729.172 Q787.632 732.343 787.632 737.76 Q787.632 743.339 784.16 746.44 Q780.687 749.519 774.368 749.519 Q772.192 749.519 769.923 749.149 Q767.678 748.778 765.271 748.038 L765.271 743.339 Q767.354 744.473 769.576 745.028 Q771.798 745.584 774.275 745.584 Q778.28 745.584 780.618 743.478 Q782.956 741.371 782.956 737.76 Q782.956 734.149 780.618 732.042 Q778.28 729.936 774.275 729.936 Q772.4 729.936 770.525 730.353 Q768.673 730.769 766.729 731.649 L766.729 714.288 Z" fill="#000000" fill-rule="evenodd" fill-opacity="1"></path><path clip-path="url(#clip580)" d="M1233.61 744.913 L1241.25 744.913 L1241.25 718.547 L1232.94 720.214 L1232.94 715.955 L1241.2 714.288 L1245.88 714.288 L1245.88 744.913 L1253.52 744.913 L1253.52 748.848 L1233.61 748.848 L1233.61 744.913 Z" fill="#000000" fill-rule="evenodd" fill-opacity="1"></path><path clip-path="url(#clip580)" d="M1262.96 742.968 L1267.85 742.968 L1267.85 748.848 L1262.96 748.848 L1262.96 742.968 Z" fill="#000000" fill-rule="evenodd" fill-opacity="1"></path><path clip-path="url(#clip580)" d="M1288.03 717.367 Q1284.42 717.367 1282.59 720.931 Q1280.79 724.473 1280.79 731.603 Q1280.79 738.709 1282.59 742.274 Q1284.42 745.815 1288.03 745.815 Q1291.67 745.815 1293.47 742.274 Q1295.3 738.709 1295.3 731.603 Q1295.3 724.473 1293.47 720.931 Q1291.67 717.367 1288.03 717.367 M1288.03 713.663 Q1293.84 713.663 1296.9 718.269 Q1299.98 722.853 1299.98 731.603 Q1299.98 740.329 1296.9 744.936 Q1293.84 749.519 1288.03 749.519 Q1282.22 749.519 1279.14 744.936 Q1276.09 740.329 1276.09 731.603 Q1276.09 722.853 1279.14 718.269 Q1282.22 713.663 1288.03 713.663 Z" fill="#000000" fill-rule="evenodd" fill-opacity="1"></path><path clip-path="url(#clip580)" d="M1747 744.913 L1754.64 744.913 L1754.64 718.547 L1746.33 720.214 L1746.33 715.955 L1754.59 714.288 L1759.27 714.288 L1759.27 744.913 L1766.9 744.913 L1766.9 748.848 L1747 748.848 L1747 744.913 Z" fill="#000000" fill-rule="evenodd" fill-opacity="1"></path><path clip-path="url(#clip580)" d="M1776.35 742.968 L1781.23 742.968 L1781.23 748.848 L1776.35 748.848 L1776.35 742.968 Z" fill="#000000" fill-rule="evenodd" fill-opacity="1"></path><path clip-path="url(#clip580)" d="M1791.46 714.288 L1809.82 714.288 L1809.82 718.223 L1795.75 718.223 L1795.75 726.695 Q1796.77 726.348 1797.78 726.186 Q1798.8 726.001 1799.82 726.001 Q1805.61 726.001 1808.99 729.172 Q1812.37 732.343 1812.37 737.76 Q1812.37 743.339 1808.89 746.44 Q1805.42 749.519 1799.1 749.519 Q1796.93 749.519 1794.66 749.149 Q1792.41 748.778 1790.01 748.038 L1790.01 743.339 Q1792.09 744.473 1794.31 745.028 Q1796.53 745.584 1799.01 745.584 Q1803.02 745.584 1805.35 743.478 Q1807.69 741.371 1807.69 737.76 Q1807.69 734.149 1805.35 732.042 Q1803.02 729.936 1799.01 729.936 Q1797.14 729.936 1795.26 730.353 Q1793.41 730.769 1791.46 731.649 L1791.46 714.288 Z" fill="#000000" fill-rule="evenodd" fill-opacity="1"></path><path clip-path="url(#clip580)" d="M2263.47 744.913 L2279.79 744.913 L2279.79 748.848 L2257.85 748.848 L2257.85 744.913 Q2260.51 742.158 2265.09 737.528 Q2269.7 732.876 2270.88 731.533 Q2273.13 729.01 2274.01 727.274 Q2274.91 725.515 2274.91 723.825 Q2274.91 721.07 2272.96 719.334 Q2271.04 717.598 2267.94 717.598 Q2265.74 717.598 2263.29 718.362 Q2260.86 719.126 2258.08 720.677 L2258.08 715.955 Q2260.9 714.82 2263.36 714.242 Q2265.81 713.663 2267.85 713.663 Q2273.22 713.663 2276.41 716.348 Q2279.61 719.033 2279.61 723.524 Q2279.61 725.654 2278.8 727.575 Q2278.01 729.473 2275.9 732.066 Q2275.33 732.737 2272.22 735.954 Q2269.12 739.149 2263.47 744.913 Z" fill="#000000" fill-rule="evenodd" fill-opacity="1"></path><path clip-path="url(#clip580)" d="M2289.61 742.968 L2294.49 742.968 L2294.49 748.848 L2289.61 748.848 L2289.61 742.968 Z" fill="#000000" fill-rule="evenodd" fill-opacity="1"></path><path clip-path="url(#clip580)" d="M2314.68 717.367 Q2311.07 717.367 2309.24 720.931 Q2307.43 724.473 2307.43 731.603 Q2307.43 738.709 2309.24 742.274 Q2311.07 745.815 2314.68 745.815 Q2318.31 745.815 2320.12 742.274 Q2321.95 738.709 2321.95 731.603 Q2321.95 724.473 2320.12 720.931 Q2318.31 717.367 2314.68 717.367 M2314.68 713.663 Q2320.49 713.663 2323.54 718.269 Q2326.62 722.853 2326.62 731.603 Q2326.62 740.329 2323.54 744.936 Q2320.49 749.519 2314.68 749.519 Q2308.87 749.519 2305.79 744.936 Q2302.73 740.329 2302.73 731.603 Q2302.73 722.853 2305.79 718.269 Q2308.87 713.663 2314.68 713.663 Z" fill="#000000" fill-rule="evenodd" fill-opacity="1"></path><polyline clip-path="url(#clip582)" style="stroke:#000000; stroke-linecap:round; stroke-linejoin:round; stroke-width:2; stroke-opacity:0.1; fill:none" points="
  214.353,671.847 2352.76,671.847 
  "></polyline>
<polyline clip-path="url(#clip582)" style="stroke:#000000; stroke-linecap:round; stroke-linejoin:round; stroke-width:2; stroke-opacity:0.1; fill:none" points="
  214.353,518.239 2352.76,518.239 
  "></polyline>
<polyline clip-path="url(#clip582)" style="stroke:#000000; stroke-linecap:round; stroke-linejoin:round; stroke-width:2; stroke-opacity:0.1; fill:none" points="
  214.353,364.631 2352.76,364.631 
  "></polyline>
<polyline clip-path="url(#clip582)" style="stroke:#000000; stroke-linecap:round; stroke-linejoin:round; stroke-width:2; stroke-opacity:0.1; fill:none" points="
  214.353,211.023 2352.76,211.023 
  "></polyline>
<polyline clip-path="url(#clip582)" style="stroke:#000000; stroke-linecap:round; stroke-linejoin:round; stroke-width:2; stroke-opacity:0.1; fill:none" points="
  214.353,57.4155 2352.76,57.4155 
  "></polyline>
<polyline clip-path="url(#clip580)" style="stroke:#000000; stroke-linecap:round; stroke-linejoin:round; stroke-width:4; stroke-opacity:1; fill:none" points="
  214.353,686.448 214.353,47.2441 
  "></polyline>
<polyline clip-path="url(#clip580)" style="stroke:#000000; stroke-linecap:round; stroke-linejoin:round; stroke-width:4; stroke-opacity:1; fill:none" points="
  214.353,671.847 233.25,671.847 
  "></polyline>
<polyline clip-path="url(#clip580)" style="stroke:#000000; stroke-linecap:round; stroke-linejoin:round; stroke-width:4; stroke-opacity:1; fill:none" points="
  214.353,518.239 233.25,518.239 
  "></polyline>
<polyline clip-path="url(#clip580)" style="stroke:#000000; stroke-linecap:round; stroke-linejoin:round; stroke-width:4; stroke-opacity:1; fill:none" points="
  214.353,364.631 233.25,364.631 
  "></polyline>
<polyline clip-path="url(#clip580)" style="stroke:#000000; stroke-linecap:round; stroke-linejoin:round; stroke-width:4; stroke-opacity:1; fill:none" points="
  214.353,211.023 233.25,211.023 
  "></polyline>
<polyline clip-path="url(#clip580)" style="stroke:#000000; stroke-linecap:round; stroke-linejoin:round; stroke-width:4; stroke-opacity:1; fill:none" points="
  214.353,57.4155 233.25,57.4155 
  "></polyline>
<path clip-path="url(#clip580)" d="M166.408 657.645 Q162.797 657.645 160.968 661.21 Q159.163 664.752 159.163 671.882 Q159.163 678.988 160.968 682.553 Q162.797 686.094 166.408 686.094 Q170.042 686.094 171.848 682.553 Q173.677 678.988 173.677 671.882 Q173.677 664.752 171.848 661.21 Q170.042 657.645 166.408 657.645 M166.408 653.942 Q172.218 653.942 175.274 658.548 Q178.353 663.132 178.353 671.882 Q178.353 680.608 175.274 685.215 Q172.218 689.798 166.408 689.798 Q160.598 689.798 157.519 685.215 Q154.464 680.608 154.464 671.882 Q154.464 663.132 157.519 658.548 Q160.598 653.942 166.408 653.942 Z" fill="#000000" fill-rule="evenodd" fill-opacity="1"></path><path clip-path="url(#clip580)" d="M96.8947 531.584 L104.534 531.584 L104.534 505.218 L96.2234 506.885 L96.2234 502.626 L104.487 500.959 L109.163 500.959 L109.163 531.584 L116.802 531.584 L116.802 535.519 L96.8947 535.519 L96.8947 531.584 Z" fill="#000000" fill-rule="evenodd" fill-opacity="1"></path><path clip-path="url(#clip580)" d="M136.246 504.038 Q132.635 504.038 130.807 507.602 Q129.001 511.144 129.001 518.274 Q129.001 525.38 130.807 528.945 Q132.635 532.487 136.246 532.487 Q139.881 532.487 141.686 528.945 Q143.515 525.38 143.515 518.274 Q143.515 511.144 141.686 507.602 Q139.881 504.038 136.246 504.038 M136.246 500.334 Q142.056 500.334 145.112 504.94 Q148.191 509.524 148.191 518.274 Q148.191 527 145.112 531.607 Q142.056 536.19 136.246 536.19 Q130.436 536.19 127.357 531.607 Q124.302 527 124.302 518.274 Q124.302 509.524 127.357 504.94 Q130.436 500.334 136.246 500.334 Z" fill="#000000" fill-rule="evenodd" fill-opacity="1"></path><path clip-path="url(#clip580)" d="M166.408 504.038 Q162.797 504.038 160.968 507.602 Q159.163 511.144 159.163 518.274 Q159.163 525.38 160.968 528.945 Q162.797 532.487 166.408 532.487 Q170.042 532.487 171.848 528.945 Q173.677 525.38 173.677 518.274 Q173.677 511.144 171.848 507.602 Q170.042 504.038 166.408 504.038 M166.408 500.334 Q172.218 500.334 175.274 504.94 Q178.353 509.524 178.353 518.274 Q178.353 527 175.274 531.607 Q172.218 536.19 166.408 536.19 Q160.598 536.19 157.519 531.607 Q154.464 527 154.464 518.274 Q154.464 509.524 157.519 504.94 Q160.598 500.334 166.408 500.334 Z" fill="#000000" fill-rule="evenodd" fill-opacity="1"></path><path clip-path="url(#clip580)" d="M100.112 377.976 L116.432 377.976 L116.432 381.911 L94.4873 381.911 L94.4873 377.976 Q97.1493 375.221 101.733 370.592 Q106.339 365.939 107.52 364.596 Q109.765 362.073 110.645 360.337 Q111.547 358.578 111.547 356.888 Q111.547 354.134 109.603 352.397 Q107.682 350.661 104.58 350.661 Q102.381 350.661 99.927 351.425 Q97.4965 352.189 94.7187 353.74 L94.7187 349.018 Q97.5428 347.884 99.9965 347.305 Q102.45 346.726 104.487 346.726 Q109.858 346.726 113.052 349.411 Q116.246 352.096 116.246 356.587 Q116.246 358.717 115.436 360.638 Q114.649 362.536 112.543 365.129 Q111.964 365.8 108.862 369.018 Q105.76 372.212 100.112 377.976 Z" fill="#000000" fill-rule="evenodd" fill-opacity="1"></path><path clip-path="url(#clip580)" d="M136.246 350.43 Q132.635 350.43 130.807 353.995 Q129.001 357.536 129.001 364.666 Q129.001 371.772 130.807 375.337 Q132.635 378.879 136.246 378.879 Q139.881 378.879 141.686 375.337 Q143.515 371.772 143.515 364.666 Q143.515 357.536 141.686 353.995 Q139.881 350.43 136.246 350.43 M136.246 346.726 Q142.056 346.726 145.112 351.333 Q148.191 355.916 148.191 364.666 Q148.191 373.393 145.112 377.999 Q142.056 382.582 136.246 382.582 Q130.436 382.582 127.357 377.999 Q124.302 373.393 124.302 364.666 Q124.302 355.916 127.357 351.333 Q130.436 346.726 136.246 346.726 Z" fill="#000000" fill-rule="evenodd" fill-opacity="1"></path><path clip-path="url(#clip580)" d="M166.408 350.43 Q162.797 350.43 160.968 353.995 Q159.163 357.536 159.163 364.666 Q159.163 371.772 160.968 375.337 Q162.797 378.879 166.408 378.879 Q170.042 378.879 171.848 375.337 Q173.677 371.772 173.677 364.666 Q173.677 357.536 171.848 353.995 Q170.042 350.43 166.408 350.43 M166.408 346.726 Q172.218 346.726 175.274 351.333 Q178.353 355.916 178.353 364.666 Q178.353 373.393 175.274 377.999 Q172.218 382.582 166.408 382.582 Q160.598 382.582 157.519 377.999 Q154.464 373.393 154.464 364.666 Q154.464 355.916 157.519 351.333 Q160.598 346.726 166.408 346.726 Z" fill="#000000" fill-rule="evenodd" fill-opacity="1"></path><path clip-path="url(#clip580)" d="M110.251 209.669 Q113.608 210.387 115.483 212.655 Q117.381 214.924 117.381 218.257 Q117.381 223.373 113.862 226.174 Q110.344 228.975 103.862 228.975 Q101.686 228.975 99.3715 228.535 Q97.0798 228.118 94.6262 227.262 L94.6262 222.748 Q96.5706 223.882 98.8854 224.461 Q101.2 225.039 103.723 225.039 Q108.121 225.039 110.413 223.303 Q112.728 221.567 112.728 218.257 Q112.728 215.202 110.575 213.489 Q108.446 211.752 104.626 211.752 L100.598 211.752 L100.598 207.91 L104.811 207.91 Q108.26 207.91 110.089 206.544 Q111.918 205.155 111.918 202.563 Q111.918 199.901 110.02 198.489 Q108.145 197.053 104.626 197.053 Q102.705 197.053 100.506 197.47 Q98.3067 197.887 95.6678 198.766 L95.6678 194.6 Q98.3298 193.859 100.645 193.489 Q102.983 193.118 105.043 193.118 Q110.367 193.118 113.469 195.549 Q116.57 197.956 116.57 202.077 Q116.57 204.947 114.927 206.938 Q113.283 208.905 110.251 209.669 Z" fill="#000000" fill-rule="evenodd" fill-opacity="1"></path><path clip-path="url(#clip580)" d="M136.246 196.822 Q132.635 196.822 130.807 200.387 Q129.001 203.928 129.001 211.058 Q129.001 218.164 130.807 221.729 Q132.635 225.271 136.246 225.271 Q139.881 225.271 141.686 221.729 Q143.515 218.164 143.515 211.058 Q143.515 203.928 141.686 200.387 Q139.881 196.822 136.246 196.822 M136.246 193.118 Q142.056 193.118 145.112 197.725 Q148.191 202.308 148.191 211.058 Q148.191 219.785 145.112 224.391 Q142.056 228.975 136.246 228.975 Q130.436 228.975 127.357 224.391 Q124.302 219.785 124.302 211.058 Q124.302 202.308 127.357 197.725 Q130.436 193.118 136.246 193.118 Z" fill="#000000" fill-rule="evenodd" fill-opacity="1"></path><path clip-path="url(#clip580)" d="M166.408 196.822 Q162.797 196.822 160.968 200.387 Q159.163 203.928 159.163 211.058 Q159.163 218.164 160.968 221.729 Q162.797 225.271 166.408 225.271 Q170.042 225.271 171.848 221.729 Q173.677 218.164 173.677 211.058 Q173.677 203.928 171.848 200.387 Q170.042 196.822 166.408 196.822 M166.408 193.118 Q172.218 193.118 175.274 197.725 Q178.353 202.308 178.353 211.058 Q178.353 219.785 175.274 224.391 Q172.218 228.975 166.408 228.975 Q160.598 228.975 157.519 224.391 Q154.464 219.785 154.464 211.058 Q154.464 202.308 157.519 197.725 Q160.598 193.118 166.408 193.118 Z" fill="#000000" fill-rule="evenodd" fill-opacity="1"></path><path clip-path="url(#clip580)" d="M108.932 44.2095 L97.1261 62.6585 L108.932 62.6585 L108.932 44.2095 M107.705 40.1355 L113.584 40.1355 L113.584 62.6585 L118.515 62.6585 L118.515 66.5474 L113.584 66.5474 L113.584 74.6955 L108.932 74.6955 L108.932 66.5474 L93.3299 66.5474 L93.3299 62.0335 L107.705 40.1355 Z" fill="#000000" fill-rule="evenodd" fill-opacity="1"></path><path clip-path="url(#clip580)" d="M136.246 43.2141 Q132.635 43.2141 130.807 46.7789 Q129.001 50.3206 129.001 57.4502 Q129.001 64.5566 130.807 68.1214 Q132.635 71.6631 136.246 71.6631 Q139.881 71.6631 141.686 68.1214 Q143.515 64.5566 143.515 57.4502 Q143.515 50.3206 141.686 46.7789 Q139.881 43.2141 136.246 43.2141 M136.246 39.5105 Q142.056 39.5105 145.112 44.1169 Q148.191 48.7002 148.191 57.4502 Q148.191 66.177 145.112 70.7834 Q142.056 75.3668 136.246 75.3668 Q130.436 75.3668 127.357 70.7834 Q124.302 66.177 124.302 57.4502 Q124.302 48.7002 127.357 44.1169 Q130.436 39.5105 136.246 39.5105 Z" fill="#000000" fill-rule="evenodd" fill-opacity="1"></path><path clip-path="url(#clip580)" d="M166.408 43.2141 Q162.797 43.2141 160.968 46.7789 Q159.163 50.3206 159.163 57.4502 Q159.163 64.5566 160.968 68.1214 Q162.797 71.6631 166.408 71.6631 Q170.042 71.6631 171.848 68.1214 Q173.677 64.5566 173.677 57.4502 Q173.677 50.3206 171.848 46.7789 Q170.042 43.2141 166.408 43.2141 M166.408 39.5105 Q172.218 39.5105 175.274 44.1169 Q178.353 48.7002 178.353 57.4502 Q178.353 66.177 175.274 70.7834 Q172.218 75.3668 166.408 75.3668 Q160.598 75.3668 157.519 70.7834 Q154.464 66.177 154.464 57.4502 Q154.464 48.7002 157.519 44.1169 Q160.598 39.5105 166.408 39.5105 Z" fill="#000000" fill-rule="evenodd" fill-opacity="1"></path><polyline clip-path="url(#clip582)" style="stroke:#009af9; stroke-linecap:round; stroke-linejoin:round; stroke-width:4; stroke-opacity:1; fill:none" points="
  274.873,668.357 309.066,668.357 343.259,668.328 377.451,668.252 411.644,668.098 445.836,667.937 480.029,667.602 514.221,666.938 548.414,665.804 582.607,664.081 
  616.799,661.673 650.992,658.503 685.184,654.513 719.377,649.663 753.569,643.926 787.762,637.286 821.955,629.74 856.147,621.299 890.34,611.986 924.532,601.842 
  958.725,590.929 992.917,579.337 1027.11,567.178 1061.3,554.595 1095.5,541.75 1129.69,528.818 1163.88,515.979 1198.07,503.402 1232.27,491.234 1266.46,479.594 
  1300.65,468.567 1334.84,458.201 1369.04,448.507 1403.23,439.463 1437.42,431.012 1471.61,423.068 1505.81,415.516 1540,408.222 1574.19,401.031 1608.38,393.785 
  1642.58,386.321 1676.77,378.489 1710.96,370.15 1745.15,361.186 1779.35,351.499 1813.54,341.012 1847.73,329.669 1881.92,317.432 1916.12,304.278 1950.31,290.2 
  1984.5,275.202 2018.69,259.306 2052.89,242.549 2087.08,224.99 2121.27,206.71 2155.46,187.814 2189.66,168.433 2223.85,148.718 2258.04,128.832 2292.24,108.945 
  
  "></polyline>
<polyline clip-path="url(#clip582)" style="stroke:#e26f46; stroke-linecap:round; stroke-linejoin:round; stroke-width:4; stroke-opacity:1; fill:none" points="
  274.873,641.536 309.066,641.534 343.259,637.115 377.451,628.276 411.644,615.019 445.836,601.317 480.029,587.578 514.221,574.155 548.414,561.325 582.607,549.292 
  616.799,538.186 650.992,528.08 685.184,519.001 719.377,510.947 753.569,503.894 787.762,497.813 821.955,492.668 856.147,488.426 890.34,485.054 924.532,482.516 
  958.725,480.767 992.917,479.739 1027.11,479.327 1061.3,479.378 1095.5,479.671 1129.69,479.914 1163.88,479.747 1198.07,478.759 1232.27,476.513 1266.46,472.585 
  1300.65,466.609 1334.84,458.314 1369.04,447.558 1403.23,434.347 1437.42,418.842 1471.61,401.346 1505.81,382.274 1540,362.111 1574.19,341.359 1608.38,320.485 
  1642.58,299.888 1676.77,279.872 1710.96,260.645 1745.15,242.328 1779.35,224.973 1813.54,208.579 1847.73,193.12 1881.92,178.554 1916.12,164.843 1950.31,151.962 
  1984.5,139.9 2018.69,128.662 2052.89,118.265 2087.08,108.722 2121.27,100.029 2155.46,92.1438 2189.66,84.9621 2223.85,78.3006 2258.04,71.882 2292.24,65.3348 
  
  "></polyline>
<polyline clip-path="url(#clip582)" style="stroke:#3da44d; stroke-linecap:round; stroke-linejoin:round; stroke-width:4; stroke-opacity:1; fill:none" points="
  274.873,651.618 309.066,651.616 343.259,648.748 377.451,643.141 411.644,635.041 445.836,626.567 480.029,617.804 514.221,608.829 548.414,599.725 582.607,590.574 
  616.799,581.47 650.992,572.512 685.184,563.807 719.377,555.471 753.569,547.624 787.762,540.389 821.955,533.877 856.147,528.182 890.34,523.358 924.532,519.402 
  958.725,516.23 992.917,513.663 1027.11,511.424 1061.3,509.153 1095.5,506.445 1129.69,502.908 1163.88,498.224 1198.07,492.2 1232.27,484.795 1266.46,476.106 
  1300.65,466.331 1334.84,455.713 1369.04,444.48 1403.23,432.795 1437.42,420.73 1471.61,408.258 1505.81,395.273 1540,381.631 1574.19,367.206 1608.38,351.933 
  1642.58,335.847 1676.77,319.083 1710.96,301.86 1745.15,284.454 1779.35,267.156 1813.54,250.249 1847.73,233.981 1881.92,218.556 1916.12,204.123 1950.31,190.772 
  1984.5,178.529 2018.69,167.346 2052.89,157.097 2087.08,147.566 2121.27,138.456 2155.46,129.403 2189.66,120.009 2223.85,109.893 2258.04,98.7534 2292.24,86.4143 
  
  "></polyline>
<path clip-path="url(#clip580)" d="
M285.633 275.911 L552.482 275.911 L552.482 68.5509 L285.633 68.5509  Z
  " fill="#ffffff" fill-rule="evenodd" fill-opacity="1"></path>
<polyline clip-path="url(#clip580)" style="stroke:#000000; stroke-linecap:round; stroke-linejoin:round; stroke-width:4; stroke-opacity:1; fill:none" points="
  285.633,275.911 552.482,275.911 552.482,68.5509 285.633,68.5509 285.633,275.911 
  "></polyline>
<polyline clip-path="url(#clip580)" style="stroke:#009af9; stroke-linecap:round; stroke-linejoin:round; stroke-width:4; stroke-opacity:1; fill:none" points="
  309.393,120.391 451.953,120.391 
  "></polyline>
<path clip-path="url(#clip580)" d="M489.555 140.078 Q487.75 144.708 486.037 146.12 Q484.324 147.532 481.454 147.532 L478.051 147.532 L478.051 143.967 L480.551 143.967 Q482.31 143.967 483.282 143.134 Q484.255 142.3 485.435 139.199 L486.199 137.254 L475.713 111.745 L480.227 111.745 L488.329 132.023 L496.43 111.745 L500.944 111.745 L489.555 140.078 Z" fill="#000000" fill-rule="evenodd" fill-opacity="1"></path><path clip-path="url(#clip580)" d="M508.236 133.736 L515.875 133.736 L515.875 107.37 L507.565 109.037 L507.565 104.778 L515.828 103.111 L520.504 103.111 L520.504 133.736 L528.143 133.736 L528.143 137.671 L508.236 137.671 L508.236 133.736 Z" fill="#000000" fill-rule="evenodd" fill-opacity="1"></path><polyline clip-path="url(#clip580)" style="stroke:#e26f46; stroke-linecap:round; stroke-linejoin:round; stroke-width:4; stroke-opacity:1; fill:none" points="
  309.393,172.231 451.953,172.231 
  "></polyline>
<path clip-path="url(#clip580)" d="M489.555 191.918 Q487.75 196.548 486.037 197.96 Q484.324 199.372 481.454 199.372 L478.051 199.372 L478.051 195.807 L480.551 195.807 Q482.31 195.807 483.282 194.974 Q484.255 194.14 485.435 191.039 L486.199 189.094 L475.713 163.585 L480.227 163.585 L488.329 183.863 L496.43 163.585 L500.944 163.585 L489.555 191.918 Z" fill="#000000" fill-rule="evenodd" fill-opacity="1"></path><path clip-path="url(#clip580)" d="M511.454 185.576 L527.773 185.576 L527.773 189.511 L505.829 189.511 L505.829 185.576 Q508.491 182.821 513.074 178.192 Q517.68 173.539 518.861 172.196 Q521.106 169.673 521.986 167.937 Q522.889 166.178 522.889 164.488 Q522.889 161.733 520.944 159.997 Q519.023 158.261 515.921 158.261 Q513.722 158.261 511.268 159.025 Q508.838 159.789 506.06 161.34 L506.06 156.618 Q508.884 155.483 511.338 154.905 Q513.791 154.326 515.828 154.326 Q521.199 154.326 524.393 157.011 Q527.588 159.696 527.588 164.187 Q527.588 166.317 526.778 168.238 Q525.99 170.136 523.884 172.729 Q523.305 173.4 520.203 176.617 Q517.102 179.812 511.454 185.576 Z" fill="#000000" fill-rule="evenodd" fill-opacity="1"></path><polyline clip-path="url(#clip580)" style="stroke:#3da44d; stroke-linecap:round; stroke-linejoin:round; stroke-width:4; stroke-opacity:1; fill:none" points="
  309.393,224.071 451.953,224.071 
  "></polyline>
<path clip-path="url(#clip580)" d="M489.555 243.758 Q487.75 248.388 486.037 249.8 Q484.324 251.212 481.454 251.212 L478.051 251.212 L478.051 247.647 L480.551 247.647 Q482.31 247.647 483.282 246.814 Q484.255 245.98 485.435 242.879 L486.199 240.934 L475.713 215.425 L480.227 215.425 L488.329 235.703 L496.43 215.425 L500.944 215.425 L489.555 243.758 Z" fill="#000000" fill-rule="evenodd" fill-opacity="1"></path><path clip-path="url(#clip580)" d="M521.592 222.717 Q524.949 223.434 526.824 225.703 Q528.722 227.971 528.722 231.305 Q528.722 236.42 525.203 239.221 Q521.685 242.022 515.203 242.022 Q513.028 242.022 510.713 241.582 Q508.421 241.166 505.967 240.309 L505.967 235.795 Q507.912 236.93 510.227 237.508 Q512.541 238.087 515.065 238.087 Q519.463 238.087 521.754 236.351 Q524.069 234.615 524.069 231.305 Q524.069 228.249 521.916 226.536 Q519.787 224.8 515.967 224.8 L511.94 224.8 L511.94 220.957 L516.153 220.957 Q519.602 220.957 521.43 219.592 Q523.259 218.203 523.259 215.61 Q523.259 212.948 521.361 211.536 Q519.486 210.101 515.967 210.101 Q514.046 210.101 511.847 210.518 Q509.648 210.934 507.009 211.814 L507.009 207.647 Q509.671 206.907 511.986 206.536 Q514.324 206.166 516.384 206.166 Q521.708 206.166 524.81 208.596 Q527.912 211.004 527.912 215.124 Q527.912 217.995 526.268 219.985 Q524.625 221.953 521.592 222.717 Z" fill="#000000" fill-rule="evenodd" fill-opacity="1"></path><path clip-path="url(#clip580)" d="
M214.353 1486.45 L2352.76 1486.45 L2352.76 847.244 L214.353 847.244  Z
  " fill="#ffffff" fill-rule="evenodd" fill-opacity="1"></path>
<defs>
  <clipPath id="clip583">
    <rect x="214" y="847" width="2139" height="640"></rect>
  </clipPath>
</defs>
<polyline clip-path="url(#clip583)" style="stroke:#000000; stroke-linecap:round; stroke-linejoin:round; stroke-width:2; stroke-opacity:0.1; fill:none" points="
  240.681,1486.45 240.681,847.244 
  "></polyline>
<polyline clip-path="url(#clip583)" style="stroke:#000000; stroke-linecap:round; stroke-linejoin:round; stroke-width:2; stroke-opacity:0.1; fill:none" points="
  753.569,1486.45 753.569,847.244 
  "></polyline>
<polyline clip-path="url(#clip583)" style="stroke:#000000; stroke-linecap:round; stroke-linejoin:round; stroke-width:2; stroke-opacity:0.1; fill:none" points="
  1266.46,1486.45 1266.46,847.244 
  "></polyline>
<polyline clip-path="url(#clip583)" style="stroke:#000000; stroke-linecap:round; stroke-linejoin:round; stroke-width:2; stroke-opacity:0.1; fill:none" points="
  1779.35,1486.45 1779.35,847.244 
  "></polyline>
<polyline clip-path="url(#clip583)" style="stroke:#000000; stroke-linecap:round; stroke-linejoin:round; stroke-width:2; stroke-opacity:0.1; fill:none" points="
  2292.24,1486.45 2292.24,847.244 
  "></polyline>
<polyline clip-path="url(#clip580)" style="stroke:#000000; stroke-linecap:round; stroke-linejoin:round; stroke-width:4; stroke-opacity:1; fill:none" points="
  214.353,1486.45 2352.76,1486.45 
  "></polyline>
<polyline clip-path="url(#clip580)" style="stroke:#000000; stroke-linecap:round; stroke-linejoin:round; stroke-width:4; stroke-opacity:1; fill:none" points="
  240.681,1486.45 240.681,1467.55 
  "></polyline>
<polyline clip-path="url(#clip580)" style="stroke:#000000; stroke-linecap:round; stroke-linejoin:round; stroke-width:4; stroke-opacity:1; fill:none" points="
  753.569,1486.45 753.569,1467.55 
  "></polyline>
<polyline clip-path="url(#clip580)" style="stroke:#000000; stroke-linecap:round; stroke-linejoin:round; stroke-width:4; stroke-opacity:1; fill:none" points="
  1266.46,1486.45 1266.46,1467.55 
  "></polyline>
<polyline clip-path="url(#clip580)" style="stroke:#000000; stroke-linecap:round; stroke-linejoin:round; stroke-width:4; stroke-opacity:1; fill:none" points="
  1779.35,1486.45 1779.35,1467.55 
  "></polyline>
<polyline clip-path="url(#clip580)" style="stroke:#000000; stroke-linecap:round; stroke-linejoin:round; stroke-width:4; stroke-opacity:1; fill:none" points="
  2292.24,1486.45 2292.24,1467.55 
  "></polyline>
<path clip-path="url(#clip580)" d="M218.065 1517.37 Q214.454 1517.37 212.625 1520.93 Q210.82 1524.47 210.82 1531.6 Q210.82 1538.71 212.625 1542.27 Q214.454 1545.82 218.065 1545.82 Q221.699 1545.82 223.505 1542.27 Q225.334 1538.71 225.334 1531.6 Q225.334 1524.47 223.505 1520.93 Q221.699 1517.37 218.065 1517.37 M218.065 1513.66 Q223.875 1513.66 226.931 1518.27 Q230.01 1522.85 230.01 1531.6 Q230.01 1540.33 226.931 1544.94 Q223.875 1549.52 218.065 1549.52 Q212.255 1549.52 209.176 1544.94 Q206.121 1540.33 206.121 1531.6 Q206.121 1522.85 209.176 1518.27 Q212.255 1513.66 218.065 1513.66 Z" fill="#000000" fill-rule="evenodd" fill-opacity="1"></path><path clip-path="url(#clip580)" d="M238.227 1542.97 L243.111 1542.97 L243.111 1548.85 L238.227 1548.85 L238.227 1542.97 Z" fill="#000000" fill-rule="evenodd" fill-opacity="1"></path><path clip-path="url(#clip580)" d="M263.296 1517.37 Q259.685 1517.37 257.857 1520.93 Q256.051 1524.47 256.051 1531.6 Q256.051 1538.71 257.857 1542.27 Q259.685 1545.82 263.296 1545.82 Q266.931 1545.82 268.736 1542.27 Q270.565 1538.71 270.565 1531.6 Q270.565 1524.47 268.736 1520.93 Q266.931 1517.37 263.296 1517.37 M263.296 1513.66 Q269.107 1513.66 272.162 1518.27 Q275.241 1522.85 275.241 1531.6 Q275.241 1540.33 272.162 1544.94 Q269.107 1549.52 263.296 1549.52 Q257.486 1549.52 254.408 1544.94 Q251.352 1540.33 251.352 1531.6 Q251.352 1522.85 254.408 1518.27 Q257.486 1513.66 263.296 1513.66 Z" fill="#000000" fill-rule="evenodd" fill-opacity="1"></path><path clip-path="url(#clip580)" d="M731.451 1517.37 Q727.84 1517.37 726.012 1520.93 Q724.206 1524.47 724.206 1531.6 Q724.206 1538.71 726.012 1542.27 Q727.84 1545.82 731.451 1545.82 Q735.086 1545.82 736.891 1542.27 Q738.72 1538.71 738.72 1531.6 Q738.72 1524.47 736.891 1520.93 Q735.086 1517.37 731.451 1517.37 M731.451 1513.66 Q737.262 1513.66 740.317 1518.27 Q743.396 1522.85 743.396 1531.6 Q743.396 1540.33 740.317 1544.94 Q737.262 1549.52 731.451 1549.52 Q725.641 1549.52 722.563 1544.94 Q719.507 1540.33 719.507 1531.6 Q719.507 1522.85 722.563 1518.27 Q725.641 1513.66 731.451 1513.66 Z" fill="#000000" fill-rule="evenodd" fill-opacity="1"></path><path clip-path="url(#clip580)" d="M751.613 1542.97 L756.498 1542.97 L756.498 1548.85 L751.613 1548.85 L751.613 1542.97 Z" fill="#000000" fill-rule="evenodd" fill-opacity="1"></path><path clip-path="url(#clip580)" d="M766.729 1514.29 L785.085 1514.29 L785.085 1518.22 L771.011 1518.22 L771.011 1526.7 Q772.03 1526.35 773.048 1526.19 Q774.067 1526 775.085 1526 Q780.872 1526 784.252 1529.17 Q787.632 1532.34 787.632 1537.76 Q787.632 1543.34 784.16 1546.44 Q780.687 1549.52 774.368 1549.52 Q772.192 1549.52 769.923 1549.15 Q767.678 1548.78 765.271 1548.04 L765.271 1543.34 Q767.354 1544.47 769.576 1545.03 Q771.798 1545.58 774.275 1545.58 Q778.28 1545.58 780.618 1543.48 Q782.956 1541.37 782.956 1537.76 Q782.956 1534.15 780.618 1532.04 Q778.28 1529.94 774.275 1529.94 Q772.4 1529.94 770.525 1530.35 Q768.673 1530.77 766.729 1531.65 L766.729 1514.29 Z" fill="#000000" fill-rule="evenodd" fill-opacity="1"></path><path clip-path="url(#clip580)" d="M1233.61 1544.91 L1241.25 1544.91 L1241.25 1518.55 L1232.94 1520.21 L1232.94 1515.95 L1241.2 1514.29 L1245.88 1514.29 L1245.88 1544.91 L1253.52 1544.91 L1253.52 1548.85 L1233.61 1548.85 L1233.61 1544.91 Z" fill="#000000" fill-rule="evenodd" fill-opacity="1"></path><path clip-path="url(#clip580)" d="M1262.96 1542.97 L1267.85 1542.97 L1267.85 1548.85 L1262.96 1548.85 L1262.96 1542.97 Z" fill="#000000" fill-rule="evenodd" fill-opacity="1"></path><path clip-path="url(#clip580)" d="M1288.03 1517.37 Q1284.42 1517.37 1282.59 1520.93 Q1280.79 1524.47 1280.79 1531.6 Q1280.79 1538.71 1282.59 1542.27 Q1284.42 1545.82 1288.03 1545.82 Q1291.67 1545.82 1293.47 1542.27 Q1295.3 1538.71 1295.3 1531.6 Q1295.3 1524.47 1293.47 1520.93 Q1291.67 1517.37 1288.03 1517.37 M1288.03 1513.66 Q1293.84 1513.66 1296.9 1518.27 Q1299.98 1522.85 1299.98 1531.6 Q1299.98 1540.33 1296.9 1544.94 Q1293.84 1549.52 1288.03 1549.52 Q1282.22 1549.52 1279.14 1544.94 Q1276.09 1540.33 1276.09 1531.6 Q1276.09 1522.85 1279.14 1518.27 Q1282.22 1513.66 1288.03 1513.66 Z" fill="#000000" fill-rule="evenodd" fill-opacity="1"></path><path clip-path="url(#clip580)" d="M1747 1544.91 L1754.64 1544.91 L1754.64 1518.55 L1746.33 1520.21 L1746.33 1515.95 L1754.59 1514.29 L1759.27 1514.29 L1759.27 1544.91 L1766.9 1544.91 L1766.9 1548.85 L1747 1548.85 L1747 1544.91 Z" fill="#000000" fill-rule="evenodd" fill-opacity="1"></path><path clip-path="url(#clip580)" d="M1776.35 1542.97 L1781.23 1542.97 L1781.23 1548.85 L1776.35 1548.85 L1776.35 1542.97 Z" fill="#000000" fill-rule="evenodd" fill-opacity="1"></path><path clip-path="url(#clip580)" d="M1791.46 1514.29 L1809.82 1514.29 L1809.82 1518.22 L1795.75 1518.22 L1795.75 1526.7 Q1796.77 1526.35 1797.78 1526.19 Q1798.8 1526 1799.82 1526 Q1805.61 1526 1808.99 1529.17 Q1812.37 1532.34 1812.37 1537.76 Q1812.37 1543.34 1808.89 1546.44 Q1805.42 1549.52 1799.1 1549.52 Q1796.93 1549.52 1794.66 1549.15 Q1792.41 1548.78 1790.01 1548.04 L1790.01 1543.34 Q1792.09 1544.47 1794.31 1545.03 Q1796.53 1545.58 1799.01 1545.58 Q1803.02 1545.58 1805.35 1543.48 Q1807.69 1541.37 1807.69 1537.76 Q1807.69 1534.15 1805.35 1532.04 Q1803.02 1529.94 1799.01 1529.94 Q1797.14 1529.94 1795.26 1530.35 Q1793.41 1530.77 1791.46 1531.65 L1791.46 1514.29 Z" fill="#000000" fill-rule="evenodd" fill-opacity="1"></path><path clip-path="url(#clip580)" d="M2263.47 1544.91 L2279.79 1544.91 L2279.79 1548.85 L2257.85 1548.85 L2257.85 1544.91 Q2260.51 1542.16 2265.09 1537.53 Q2269.7 1532.88 2270.88 1531.53 Q2273.13 1529.01 2274.01 1527.27 Q2274.91 1525.51 2274.91 1523.82 Q2274.91 1521.07 2272.96 1519.33 Q2271.04 1517.6 2267.94 1517.6 Q2265.74 1517.6 2263.29 1518.36 Q2260.86 1519.13 2258.08 1520.68 L2258.08 1515.95 Q2260.9 1514.82 2263.36 1514.24 Q2265.81 1513.66 2267.85 1513.66 Q2273.22 1513.66 2276.41 1516.35 Q2279.61 1519.03 2279.61 1523.52 Q2279.61 1525.65 2278.8 1527.57 Q2278.01 1529.47 2275.9 1532.07 Q2275.33 1532.74 2272.22 1535.95 Q2269.12 1539.15 2263.47 1544.91 Z" fill="#000000" fill-rule="evenodd" fill-opacity="1"></path><path clip-path="url(#clip580)" d="M2289.61 1542.97 L2294.49 1542.97 L2294.49 1548.85 L2289.61 1548.85 L2289.61 1542.97 Z" fill="#000000" fill-rule="evenodd" fill-opacity="1"></path><path clip-path="url(#clip580)" d="M2314.68 1517.37 Q2311.07 1517.37 2309.24 1520.93 Q2307.43 1524.47 2307.43 1531.6 Q2307.43 1538.71 2309.24 1542.27 Q2311.07 1545.82 2314.68 1545.82 Q2318.31 1545.82 2320.12 1542.27 Q2321.95 1538.71 2321.95 1531.6 Q2321.95 1524.47 2320.12 1520.93 Q2318.31 1517.37 2314.68 1517.37 M2314.68 1513.66 Q2320.49 1513.66 2323.54 1518.27 Q2326.62 1522.85 2326.62 1531.6 Q2326.62 1540.33 2323.54 1544.94 Q2320.49 1549.52 2314.68 1549.52 Q2308.87 1549.52 2305.79 1544.94 Q2302.73 1540.33 2302.73 1531.6 Q2302.73 1522.85 2305.79 1518.27 Q2308.87 1513.66 2314.68 1513.66 Z" fill="#000000" fill-rule="evenodd" fill-opacity="1"></path><polyline clip-path="url(#clip583)" style="stroke:#000000; stroke-linecap:round; stroke-linejoin:round; stroke-width:2; stroke-opacity:0.1; fill:none" points="
  214.353,1460.02 2352.76,1460.02 
  "></polyline>
<polyline clip-path="url(#clip583)" style="stroke:#000000; stroke-linecap:round; stroke-linejoin:round; stroke-width:2; stroke-opacity:0.1; fill:none" points="
  214.353,1302.47 2352.76,1302.47 
  "></polyline>
<polyline clip-path="url(#clip583)" style="stroke:#000000; stroke-linecap:round; stroke-linejoin:round; stroke-width:2; stroke-opacity:0.1; fill:none" points="
  214.353,1144.93 2352.76,1144.93 
  "></polyline>
<polyline clip-path="url(#clip583)" style="stroke:#000000; stroke-linecap:round; stroke-linejoin:round; stroke-width:2; stroke-opacity:0.1; fill:none" points="
  214.353,987.383 2352.76,987.383 
  "></polyline>
<polyline clip-path="url(#clip580)" style="stroke:#000000; stroke-linecap:round; stroke-linejoin:round; stroke-width:4; stroke-opacity:1; fill:none" points="
  214.353,1486.45 214.353,847.244 
  "></polyline>
<polyline clip-path="url(#clip580)" style="stroke:#000000; stroke-linecap:round; stroke-linejoin:round; stroke-width:4; stroke-opacity:1; fill:none" points="
  214.353,1460.02 233.25,1460.02 
  "></polyline>
<polyline clip-path="url(#clip580)" style="stroke:#000000; stroke-linecap:round; stroke-linejoin:round; stroke-width:4; stroke-opacity:1; fill:none" points="
  214.353,1302.47 233.25,1302.47 
  "></polyline>
<polyline clip-path="url(#clip580)" style="stroke:#000000; stroke-linecap:round; stroke-linejoin:round; stroke-width:4; stroke-opacity:1; fill:none" points="
  214.353,1144.93 233.25,1144.93 
  "></polyline>
<polyline clip-path="url(#clip580)" style="stroke:#000000; stroke-linecap:round; stroke-linejoin:round; stroke-width:4; stroke-opacity:1; fill:none" points="
  214.353,987.383 233.25,987.383 
  "></polyline>
<path clip-path="url(#clip580)" d="M51.6634 1473.36 L59.3023 1473.36 L59.3023 1447 L50.9921 1448.66 L50.9921 1444.41 L59.256 1442.74 L63.9319 1442.74 L63.9319 1473.36 L71.5707 1473.36 L71.5707 1477.3 L51.6634 1477.3 L51.6634 1473.36 Z" fill="#000000" fill-rule="evenodd" fill-opacity="1"></path><path clip-path="url(#clip580)" d="M81.0151 1471.42 L85.8993 1471.42 L85.8993 1477.3 L81.0151 1477.3 L81.0151 1471.42 Z" fill="#000000" fill-rule="evenodd" fill-opacity="1"></path><path clip-path="url(#clip580)" d="M106.084 1445.82 Q102.473 1445.82 100.645 1449.38 Q98.8391 1452.92 98.8391 1460.05 Q98.8391 1467.16 100.645 1470.72 Q102.473 1474.27 106.084 1474.27 Q109.719 1474.27 111.524 1470.72 Q113.353 1467.16 113.353 1460.05 Q113.353 1452.92 111.524 1449.38 Q109.719 1445.82 106.084 1445.82 M106.084 1442.11 Q111.895 1442.11 114.95 1446.72 Q118.029 1451.3 118.029 1460.05 Q118.029 1468.78 114.95 1473.39 Q111.895 1477.97 106.084 1477.97 Q100.274 1477.97 97.1956 1473.39 Q94.14 1468.78 94.14 1460.05 Q94.14 1451.3 97.1956 1446.72 Q100.274 1442.11 106.084 1442.11 Z" fill="#000000" fill-rule="evenodd" fill-opacity="1"></path><path clip-path="url(#clip580)" d="M136.246 1445.82 Q132.635 1445.82 130.807 1449.38 Q129.001 1452.92 129.001 1460.05 Q129.001 1467.16 130.807 1470.72 Q132.635 1474.27 136.246 1474.27 Q139.881 1474.27 141.686 1470.72 Q143.515 1467.16 143.515 1460.05 Q143.515 1452.92 141.686 1449.38 Q139.881 1445.82 136.246 1445.82 M136.246 1442.11 Q142.056 1442.11 145.112 1446.72 Q148.191 1451.3 148.191 1460.05 Q148.191 1468.78 145.112 1473.39 Q142.056 1477.97 136.246 1477.97 Q130.436 1477.97 127.357 1473.39 Q124.302 1468.78 124.302 1460.05 Q124.302 1451.3 127.357 1446.72 Q130.436 1442.11 136.246 1442.11 Z" fill="#000000" fill-rule="evenodd" fill-opacity="1"></path><path clip-path="url(#clip580)" d="M166.408 1445.82 Q162.797 1445.82 160.968 1449.38 Q159.163 1452.92 159.163 1460.05 Q159.163 1467.16 160.968 1470.72 Q162.797 1474.27 166.408 1474.27 Q170.042 1474.27 171.848 1470.72 Q173.677 1467.16 173.677 1460.05 Q173.677 1452.92 171.848 1449.38 Q170.042 1445.82 166.408 1445.82 M166.408 1442.11 Q172.218 1442.11 175.274 1446.72 Q178.353 1451.3 178.353 1460.05 Q178.353 1468.78 175.274 1473.39 Q172.218 1477.97 166.408 1477.97 Q160.598 1477.97 157.519 1473.39 Q154.464 1468.78 154.464 1460.05 Q154.464 1451.3 157.519 1446.72 Q160.598 1442.11 166.408 1442.11 Z" fill="#000000" fill-rule="evenodd" fill-opacity="1"></path><path clip-path="url(#clip580)" d="M52.6588 1315.82 L60.2976 1315.82 L60.2976 1289.45 L51.9875 1291.12 L51.9875 1286.86 L60.2513 1285.19 L64.9272 1285.19 L64.9272 1315.82 L72.5661 1315.82 L72.5661 1319.75 L52.6588 1319.75 L52.6588 1315.82 Z" fill="#000000" fill-rule="evenodd" fill-opacity="1"></path><path clip-path="url(#clip580)" d="M82.0105 1313.87 L86.8947 1313.87 L86.8947 1319.75 L82.0105 1319.75 L82.0105 1313.87 Z" fill="#000000" fill-rule="evenodd" fill-opacity="1"></path><path clip-path="url(#clip580)" d="M107.08 1288.27 Q103.469 1288.27 101.64 1291.84 Q99.8345 1295.38 99.8345 1302.51 Q99.8345 1309.61 101.64 1313.18 Q103.469 1316.72 107.08 1316.72 Q110.714 1316.72 112.52 1313.18 Q114.348 1309.61 114.348 1302.51 Q114.348 1295.38 112.52 1291.84 Q110.714 1288.27 107.08 1288.27 M107.08 1284.57 Q112.89 1284.57 115.945 1289.17 Q119.024 1293.76 119.024 1302.51 Q119.024 1311.24 115.945 1315.84 Q112.89 1320.42 107.08 1320.42 Q101.27 1320.42 98.1909 1315.84 Q95.1354 1311.24 95.1354 1302.51 Q95.1354 1293.76 98.1909 1289.17 Q101.27 1284.57 107.08 1284.57 Z" fill="#000000" fill-rule="evenodd" fill-opacity="1"></path><path clip-path="url(#clip580)" d="M137.242 1288.27 Q133.631 1288.27 131.802 1291.84 Q129.996 1295.38 129.996 1302.51 Q129.996 1309.61 131.802 1313.18 Q133.631 1316.72 137.242 1316.72 Q140.876 1316.72 142.681 1313.18 Q144.51 1309.61 144.51 1302.51 Q144.51 1295.38 142.681 1291.84 Q140.876 1288.27 137.242 1288.27 M137.242 1284.57 Q143.052 1284.57 146.107 1289.17 Q149.186 1293.76 149.186 1302.51 Q149.186 1311.24 146.107 1315.84 Q143.052 1320.42 137.242 1320.42 Q131.432 1320.42 128.353 1315.84 Q125.297 1311.24 125.297 1302.51 Q125.297 1293.76 128.353 1289.17 Q131.432 1284.57 137.242 1284.57 Z" fill="#000000" fill-rule="evenodd" fill-opacity="1"></path><path clip-path="url(#clip580)" d="M157.45 1285.19 L175.806 1285.19 L175.806 1289.13 L161.732 1289.13 L161.732 1297.6 Q162.751 1297.25 163.769 1297.09 Q164.788 1296.91 165.806 1296.91 Q171.593 1296.91 174.973 1300.08 Q178.353 1303.25 178.353 1308.67 Q178.353 1314.24 174.88 1317.35 Q171.408 1320.42 165.089 1320.42 Q162.913 1320.42 160.644 1320.05 Q158.399 1319.68 155.992 1318.94 L155.992 1314.24 Q158.075 1315.38 160.297 1315.93 Q162.519 1316.49 164.996 1316.49 Q169.001 1316.49 171.339 1314.38 Q173.677 1312.28 173.677 1308.67 Q173.677 1305.05 171.339 1302.95 Q169.001 1300.84 164.996 1300.84 Q163.121 1300.84 161.246 1301.26 Q159.394 1301.67 157.45 1302.55 L157.45 1285.19 Z" fill="#000000" fill-rule="evenodd" fill-opacity="1"></path><path clip-path="url(#clip580)" d="M51.6634 1158.27 L59.3023 1158.27 L59.3023 1131.91 L50.9921 1133.57 L50.9921 1129.32 L59.256 1127.65 L63.9319 1127.65 L63.9319 1158.27 L71.5707 1158.27 L71.5707 1162.21 L51.6634 1162.21 L51.6634 1158.27 Z" fill="#000000" fill-rule="evenodd" fill-opacity="1"></path><path clip-path="url(#clip580)" d="M81.0151 1156.33 L85.8993 1156.33 L85.8993 1162.21 L81.0151 1162.21 L81.0151 1156.33 Z" fill="#000000" fill-rule="evenodd" fill-opacity="1"></path><path clip-path="url(#clip580)" d="M106.084 1130.73 Q102.473 1130.73 100.645 1134.29 Q98.8391 1137.83 98.8391 1144.96 Q98.8391 1152.07 100.645 1155.63 Q102.473 1159.18 106.084 1159.18 Q109.719 1159.18 111.524 1155.63 Q113.353 1152.07 113.353 1144.96 Q113.353 1137.83 111.524 1134.29 Q109.719 1130.73 106.084 1130.73 M106.084 1127.02 Q111.895 1127.02 114.95 1131.63 Q118.029 1136.21 118.029 1144.96 Q118.029 1153.69 114.95 1158.3 Q111.895 1162.88 106.084 1162.88 Q100.274 1162.88 97.1956 1158.3 Q94.14 1153.69 94.14 1144.96 Q94.14 1136.21 97.1956 1131.63 Q100.274 1127.02 106.084 1127.02 Z" fill="#000000" fill-rule="evenodd" fill-opacity="1"></path><path clip-path="url(#clip580)" d="M127.057 1158.27 L134.695 1158.27 L134.695 1131.91 L126.385 1133.57 L126.385 1129.32 L134.649 1127.65 L139.325 1127.65 L139.325 1158.27 L146.964 1158.27 L146.964 1162.21 L127.057 1162.21 L127.057 1158.27 Z" fill="#000000" fill-rule="evenodd" fill-opacity="1"></path><path clip-path="url(#clip580)" d="M166.408 1130.73 Q162.797 1130.73 160.968 1134.29 Q159.163 1137.83 159.163 1144.96 Q159.163 1152.07 160.968 1155.63 Q162.797 1159.18 166.408 1159.18 Q170.042 1159.18 171.848 1155.63 Q173.677 1152.07 173.677 1144.96 Q173.677 1137.83 171.848 1134.29 Q170.042 1130.73 166.408 1130.73 M166.408 1127.02 Q172.218 1127.02 175.274 1131.63 Q178.353 1136.21 178.353 1144.96 Q178.353 1153.69 175.274 1158.3 Q172.218 1162.88 166.408 1162.88 Q160.598 1162.88 157.519 1158.3 Q154.464 1153.69 154.464 1144.96 Q154.464 1136.21 157.519 1131.63 Q160.598 1127.02 166.408 1127.02 Z" fill="#000000" fill-rule="evenodd" fill-opacity="1"></path><path clip-path="url(#clip580)" d="M52.6588 1000.73 L60.2976 1000.73 L60.2976 974.363 L51.9875 976.029 L51.9875 971.77 L60.2513 970.103 L64.9272 970.103 L64.9272 1000.73 L72.5661 1000.73 L72.5661 1004.66 L52.6588 1004.66 L52.6588 1000.73 Z" fill="#000000" fill-rule="evenodd" fill-opacity="1"></path><path clip-path="url(#clip580)" d="M82.0105 998.784 L86.8947 998.784 L86.8947 1004.66 L82.0105 1004.66 L82.0105 998.784 Z" fill="#000000" fill-rule="evenodd" fill-opacity="1"></path><path clip-path="url(#clip580)" d="M107.08 973.182 Q103.469 973.182 101.64 976.747 Q99.8345 980.289 99.8345 987.418 Q99.8345 994.525 101.64 998.089 Q103.469 1001.63 107.08 1001.63 Q110.714 1001.63 112.52 998.089 Q114.348 994.525 114.348 987.418 Q114.348 980.289 112.52 976.747 Q110.714 973.182 107.08 973.182 M107.08 969.478 Q112.89 969.478 115.945 974.085 Q119.024 978.668 119.024 987.418 Q119.024 996.145 115.945 1000.75 Q112.89 1005.33 107.08 1005.33 Q101.27 1005.33 98.1909 1000.75 Q95.1354 996.145 95.1354 987.418 Q95.1354 978.668 98.1909 974.085 Q101.27 969.478 107.08 969.478 Z" fill="#000000" fill-rule="evenodd" fill-opacity="1"></path><path clip-path="url(#clip580)" d="M128.052 1000.73 L135.691 1000.73 L135.691 974.363 L127.381 976.029 L127.381 971.77 L135.644 970.103 L140.32 970.103 L140.32 1000.73 L147.959 1000.73 L147.959 1004.66 L128.052 1004.66 L128.052 1000.73 Z" fill="#000000" fill-rule="evenodd" fill-opacity="1"></path><path clip-path="url(#clip580)" d="M157.45 970.103 L175.806 970.103 L175.806 974.039 L161.732 974.039 L161.732 982.511 Q162.751 982.164 163.769 982.002 Q164.788 981.816 165.806 981.816 Q171.593 981.816 174.973 984.988 Q178.353 988.159 178.353 993.576 Q178.353 999.154 174.88 1002.26 Q171.408 1005.33 165.089 1005.33 Q162.913 1005.33 160.644 1004.96 Q158.399 1004.59 155.992 1003.85 L155.992 999.154 Q158.075 1000.29 160.297 1000.84 Q162.519 1001.4 164.996 1001.4 Q169.001 1001.4 171.339 999.293 Q173.677 997.187 173.677 993.576 Q173.677 989.964 171.339 987.858 Q169.001 985.752 164.996 985.752 Q163.121 985.752 161.246 986.168 Q159.394 986.585 157.45 987.464 L157.45 970.103 Z" fill="#000000" fill-rule="evenodd" fill-opacity="1"></path><polyline clip-path="url(#clip583)" style="stroke:#009af9; stroke-linecap:round; stroke-linejoin:round; stroke-width:4; stroke-opacity:1; fill:none" points="
  274.873,1460.02 309.066,1460.01 343.259,1459.19 377.451,1457.87 411.644,1455.62 445.836,1455.42 480.029,1450.48 514.221,1441.09 548.414,1427.71 582.607,1410.94 
  616.799,1391.41 650.992,1369.7 685.184,1346.36 719.377,1321.85 753.569,1296.56 787.762,1270.85 821.955,1245.05 856.147,1219.53 890.34,1194.68 924.532,1171.01 
  958.725,1149.13 992.917,1129.75 1027.11,1113.63 1061.3,1101.52 1095.5,1094.05 1129.69,1091.6 1163.88,1094.25 1198.07,1101.69 1232.27,1113.36 1266.46,1128.41 
  1300.65,1145.86 1334.84,1164.68 1369.04,1183.84 1403.23,1202.35 1437.42,1219.25 1471.61,1233.69 1505.81,1244.89 1540,1252.2 1574.19,1255.16 1608.38,1253.56 
  1642.58,1247.39 1676.77,1236.88 1710.96,1222.45 1745.15,1204.63 1779.35,1184.03 1813.54,1161.25 1847.73,1136.86 1881.92,1111.39 1916.12,1085.27 1950.31,1058.92 
  1984.5,1032.74 2018.69,1007.14 2052.89,982.624 2087.08,959.76 2121.27,939.212 2155.46,921.685 2189.66,907.865 2223.85,898.334 2258.04,893.479 2292.24,893.437 
  
  "></polyline>
<polyline clip-path="url(#clip583)" style="stroke:#e26f46; stroke-linecap:round; stroke-linejoin:round; stroke-width:4; stroke-opacity:1; fill:none" points="
  274.873,1460 309.066,1459.98 343.259,1334.1 377.451,1208.21 411.644,1082.33 445.836,1069.65 480.029,1068.61 514.221,1077.59 548.414,1094.51 582.607,1117.19 
  616.799,1143.61 650.992,1172.1 685.184,1201.37 719.377,1230.55 753.569,1259.1 787.762,1286.76 821.955,1313.44 856.147,1339.16 890.34,1363.95 924.532,1387.72 
  958.725,1410.18 992.917,1430.72 1027.11,1448.31 1061.3,1461.47 1095.5,1468.36 1129.69,1466.94 1163.88,1455.27 1198.07,1431.86 1232.27,1396.01 1266.46,1348.12 
  1300.65,1289.77 1334.84,1223.7 1369.04,1153.58 1403.23,1083.64 1437.42,1018.28 1471.61,961.555 1505.81,916.668 1540,885.583 1574.19,868.785 1608.38,865.335 
  1642.58,873.205 1676.77,889.761 1710.96,912.251 1745.15,938.183 1779.35,965.563 1813.54,992.974 1847.73,1019.58 1881.92,1045.04 1916.12,1069.41 1950.31,1093.03 
  1984.5,1116.37 2018.69,1139.86 2052.89,1163.81 2087.08,1188.14 2121.27,1212.36 2155.46,1235.36 2189.66,1255.41 2223.85,1270.23 2258.04,1277.15 2292.24,1273.49 
  
  "></polyline>
<polyline clip-path="url(#clip583)" style="stroke:#3da44d; stroke-linecap:round; stroke-linejoin:round; stroke-width:4; stroke-opacity:1; fill:none" points="
  274.873,1459.99 309.066,1459.96 343.259,1378.3 377.451,1300.28 411.644,1229.25 445.836,1218.61 480.029,1210.35 514.221,1204.34 548.414,1200.63 582.607,1199.33 
  616.799,1200.64 650.992,1204.8 685.184,1212.02 719.377,1222.53 753.569,1236.47 787.762,1253.87 821.955,1274.5 856.147,1297.77 890.34,1322.6 924.532,1347.31 
  958.725,1369.65 992.917,1386.89 1027.11,1396.23 1061.3,1395.31 1095.5,1382.87 1129.69,1359.25 1163.88,1326.57 1198.07,1288.41 1232.27,1249.05 1266.46,1212.47 
  1300.65,1181.54 1334.84,1157.52 1369.04,1139.99 1403.23,1127.13 1437.42,1116.29 1471.61,1104.69 1505.81,1090.07 1540,1071.37 1574.19,1049.04 1608.38,1024.92 
  1642.58,1001.73 1676.77,982.401 1710.96,969.349 1745.15,964.107 1779.35,967.211 1813.54,978.34 1847.73,996.56 1881.92,1020.56 1916.12,1048.82 1950.31,1079.66 
  1984.5,1111.21 2018.69,1141.43 2052.89,1168 2087.08,1188.49 2121.27,1200.49 2155.46,1202.1 2189.66,1192.37 2223.85,1171.83 2258.04,1142.65 2292.24,1108.48 
  
  "></polyline>
<path clip-path="url(#clip580)" d="
M285.633 1075.91 L552.482 1075.91 L552.482 868.551 L285.633 868.551  Z
  " fill="#ffffff" fill-rule="evenodd" fill-opacity="1"></path>
<polyline clip-path="url(#clip580)" style="stroke:#000000; stroke-linecap:round; stroke-linejoin:round; stroke-width:4; stroke-opacity:1; fill:none" points="
  285.633,1075.91 552.482,1075.91 552.482,868.551 285.633,868.551 285.633,1075.91 
  "></polyline>
<polyline clip-path="url(#clip580)" style="stroke:#009af9; stroke-linecap:round; stroke-linejoin:round; stroke-width:4; stroke-opacity:1; fill:none" points="
  309.393,920.391 451.953,920.391 
  "></polyline>
<path clip-path="url(#clip580)" d="M489.555 940.078 Q487.75 944.708 486.037 946.12 Q484.324 947.532 481.454 947.532 L478.051 947.532 L478.051 943.967 L480.551 943.967 Q482.31 943.967 483.282 943.134 Q484.255 942.3 485.435 939.199 L486.199 937.254 L475.713 911.745 L480.227 911.745 L488.329 932.023 L496.43 911.745 L500.944 911.745 L489.555 940.078 Z" fill="#000000" fill-rule="evenodd" fill-opacity="1"></path><path clip-path="url(#clip580)" d="M508.236 933.736 L515.875 933.736 L515.875 907.37 L507.565 909.037 L507.565 904.778 L515.828 903.111 L520.504 903.111 L520.504 933.736 L528.143 933.736 L528.143 937.671 L508.236 937.671 L508.236 933.736 Z" fill="#000000" fill-rule="evenodd" fill-opacity="1"></path><polyline clip-path="url(#clip580)" style="stroke:#e26f46; stroke-linecap:round; stroke-linejoin:round; stroke-width:4; stroke-opacity:1; fill:none" points="
  309.393,972.231 451.953,972.231 
  "></polyline>
<path clip-path="url(#clip580)" d="M489.555 991.918 Q487.75 996.548 486.037 997.96 Q484.324 999.372 481.454 999.372 L478.051 999.372 L478.051 995.807 L480.551 995.807 Q482.31 995.807 483.282 994.974 Q484.255 994.14 485.435 991.039 L486.199 989.094 L475.713 963.585 L480.227 963.585 L488.329 983.863 L496.43 963.585 L500.944 963.585 L489.555 991.918 Z" fill="#000000" fill-rule="evenodd" fill-opacity="1"></path><path clip-path="url(#clip580)" d="M511.454 985.576 L527.773 985.576 L527.773 989.511 L505.829 989.511 L505.829 985.576 Q508.491 982.821 513.074 978.192 Q517.68 973.539 518.861 972.196 Q521.106 969.673 521.986 967.937 Q522.889 966.178 522.889 964.488 Q522.889 961.733 520.944 959.997 Q519.023 958.261 515.921 958.261 Q513.722 958.261 511.268 959.025 Q508.838 959.789 506.06 961.34 L506.06 956.618 Q508.884 955.483 511.338 954.905 Q513.791 954.326 515.828 954.326 Q521.199 954.326 524.393 957.011 Q527.588 959.696 527.588 964.187 Q527.588 966.317 526.778 968.238 Q525.99 970.136 523.884 972.729 Q523.305 973.4 520.203 976.617 Q517.102 979.812 511.454 985.576 Z" fill="#000000" fill-rule="evenodd" fill-opacity="1"></path><polyline clip-path="url(#clip580)" style="stroke:#3da44d; stroke-linecap:round; stroke-linejoin:round; stroke-width:4; stroke-opacity:1; fill:none" points="
  309.393,1024.07 451.953,1024.07 
  "></polyline>
<path clip-path="url(#clip580)" d="M489.555 1043.76 Q487.75 1048.39 486.037 1049.8 Q484.324 1051.21 481.454 1051.21 L478.051 1051.21 L478.051 1047.65 L480.551 1047.65 Q482.31 1047.65 483.282 1046.81 Q484.255 1045.98 485.435 1042.88 L486.199 1040.93 L475.713 1015.43 L480.227 1015.43 L488.329 1035.7 L496.43 1015.43 L500.944 1015.43 L489.555 1043.76 Z" fill="#000000" fill-rule="evenodd" fill-opacity="1"></path><path clip-path="url(#clip580)" d="M521.592 1022.72 Q524.949 1023.43 526.824 1025.7 Q528.722 1027.97 528.722 1031.3 Q528.722 1036.42 525.203 1039.22 Q521.685 1042.02 515.203 1042.02 Q513.028 1042.02 510.713 1041.58 Q508.421 1041.17 505.967 1040.31 L505.967 1035.8 Q507.912 1036.93 510.227 1037.51 Q512.541 1038.09 515.065 1038.09 Q519.463 1038.09 521.754 1036.35 Q524.069 1034.61 524.069 1031.3 Q524.069 1028.25 521.916 1026.54 Q519.787 1024.8 515.967 1024.8 L511.94 1024.8 L511.94 1020.96 L516.153 1020.96 Q519.602 1020.96 521.43 1019.59 Q523.259 1018.2 523.259 1015.61 Q523.259 1012.95 521.361 1011.54 Q519.486 1010.1 515.967 1010.1 Q514.046 1010.1 511.847 1010.52 Q509.648 1010.93 507.009 1011.81 L507.009 1007.65 Q509.671 1006.91 511.986 1006.54 Q514.324 1006.17 516.384 1006.17 Q521.708 1006.17 524.81 1008.6 Q527.912 1011 527.912 1015.12 Q527.912 1017.99 526.268 1019.99 Q524.625 1021.95 521.592 1022.72 Z" fill="#000000" fill-rule="evenodd" fill-opacity="1"></path></svg>